<?xml version="1.0" encoding="utf-8"?>
<!-- Generator: Adobe Illustrator 25.0.1, SVG Export Plug-In . SVG Version: 6.00 Build 0)  -->
<svg version="1.1" id="Layer_1" xmlns="http://www.w3.org/2000/svg" xmlns:xlink="http://www.w3.org/1999/xlink" x="0px" y="0px"
	 viewBox="0 0 430 430" style="enable-background:new 0 0 430 430;" xml:space="preserve">
<style type="text/css">
	.st0{fill:#121331;}
	.st1{fill:#08a88a;}
</style>
<path class="st0" d="M224.3,315.8h-106c-16,0-29.1-13-29.1-29.1V64.6c0-16,13-29.1,29.1-29.1h106c16,0,29.1,13,29.1,29.1V189
	c0,2-1,3.8-2.6,5c-1.6,1.1-3.7,1.4-5.6,0.6L210.1,181c-0.5-0.1-1.7-0.4-4.6-0.7c-0.2,0-0.4,0-0.5-0.1c-6.4,0.2-12,4.3-14,10.4
	c-2.7,8,1.6,16.6,9.6,19.3l48.8,16.8c2.4,0.8,4,3.1,4,5.7v54.4C253.4,302.8,240.3,315.8,224.3,315.8z M118.3,47.5
	c-9.4,0-17.1,7.7-17.1,17.1v222.1c0,9.4,7.7,17.1,17.1,17.1h106c9.4,0,17.1-7.7,17.1-17.1v-50.1l-44.8-15.4
	c-14.2-4.8-21.9-20.3-17.1-34.5c3.7-11.1,14.1-18.5,25.9-18.5c0.4,0,0.9,0,1.3,0.1c0,0,0.1,0,0.1,0c2.5,0.3,5.3,0.6,7.3,1.3
	c0.1,0,0.2,0.1,0.2,0.1l27,10.5V64.6c0-9.4-7.7-17.1-17.1-17.1H118.3z"/>
<path class="st1" d="M190.6,74.6h-38.7c-3.3,0-6-2.7-6-6s2.7-6,6-6h38.7c3.3,0,6,2.7,6,6S193.9,74.6,190.6,74.6z"/>
<path class="st0" d="M228.4,367.5c-1.5,0-2.9-0.5-4.1-1.6l-55.9-51.7c-1.8-1.7-2.4-4.3-1.5-6.6c0.9-2.3,3.1-3.8,5.6-3.8h51.8
	c9.4,0,17.1-7.7,17.1-17.1v-50.1l-44.8-15.4c-14.2-4.8-21.9-20.3-17.1-34.5c3.7-11.1,14.1-18.5,25.9-18.5c0.4,0,0.9,0,1.3,0.1
	c0,0,0.1,0,0.1,0c2.5,0.3,5.3,0.6,7.3,1.3c0.1,0,0.2,0.1,0.2,0.1l35.1,13.7l32.4,11.3c0.3,0.1,0.7,0.3,1,0.4
	c6.5,3.5,11.4,9.5,13.4,16.6l15.5,55.3l10.8,33.4c0.8,2.5-0.1,5.3-2.4,6.8c0,0-59,39.5-88.5,59.2
	C230.7,367.2,229.5,367.5,228.4,367.5z M187.8,315.8l41.2,38.1c25.7-17.2,68-45.5,80.8-54l-9.4-29.2c0-0.1,0-0.1-0.1-0.2L284.7,215
	c-1.1-3.9-3.7-7.2-7.3-9.2l-32-11.2c-0.1,0-0.1,0-0.2-0.1L210.1,181c-0.5-0.1-1.7-0.4-4.6-0.7c-0.2,0-0.4,0-0.5-0.1
	c-6.4,0.2-12,4.3-14,10.4c-2.7,8,1.6,16.6,9.6,19.3l48.8,16.8c2.4,0.8,4,3.1,4,5.7v54.4c0,16-13,29.1-29.1,29.1H187.8z"/>
<path class="st0" d="M246.4,394.5c-0.4,0-0.8,0-1.2-0.1c-1.6-0.3-2.9-1.2-3.8-2.5l-18-26.9c-1.8-2.8-1.1-6.5,1.6-8.3
	c2.8-1.8,6.5-1.1,8.3,1.6l14.7,21.9l78.5-52.5l-14.7-21.9c-1.8-2.8-1.1-6.5,1.6-8.3c2.8-1.8,6.5-1.1,8.3,1.6l18,26.9
	c1.8,2.8,1.1,6.5-1.6,8.3l-88.4,59.2C248.7,394.1,247.6,394.5,246.4,394.5z"/>
</svg>
