<?xml version="1.0" encoding="utf-8"?>
<!-- Generator: Adobe Illustrator 24.1.2, SVG Export Plug-In . SVG Version: 6.00 Build 0)  -->
<svg version="1.1" id="Warstwa_3" xmlns="http://www.w3.org/2000/svg" xmlns:xlink="http://www.w3.org/1999/xlink" x="0px" y="0px"
	 viewBox="0 0 430 430" style="enable-background:new 0 0 430 430;" xml:space="preserve">
<style type="text/css">
	.st0{fill:#08a88a;}
	.st1{fill:#121331;}
	.st2{fill:none;}
	.st3{fill:#08a88a;fill-opacity:0;}
</style>
<g>
	<path class="st0" d="M140.81,211.96c-1.61,0-3.22-0.62-4.46-1.84c-0.13-0.12-17.42-16.32-62.21-17.48
		c-2.52-0.07-4.75-1.62-5.69-3.96s-0.38-5.01,1.4-6.79c47.28-47.27,113.49-39.59,116.28-39.24c3.45,0.43,5.9,3.58,5.47,7.03
		c-0.43,3.45-3.57,5.9-7.03,5.47l0,0c-0.57-0.07-52.98-6.04-94.7,25.91c39.02,4.23,54.67,19.43,55.39,20.15
		c2.46,2.46,2.46,6.45,0,8.91C144.03,211.34,142.42,211.96,140.81,211.96z"/>
	<path class="st0" d="M244.13,362.47c-0.79,0-1.58-0.15-2.33-0.45c-2.34-0.93-3.9-3.17-3.96-5.69
		c-1.16-44.79-17.35-62.08-17.52-62.25c-2.46-2.46-2.44-6.43,0.02-8.89c2.46-2.46,6.47-2.44,8.93,0.02
		c0.72,0.72,15.92,16.36,20.15,55.39c31.95-41.72,25.98-94.13,25.91-94.7c-0.42-3.45,2.03-6.6,5.48-7.02
		c3.43-0.44,6.59,2.02,7.03,5.46c0.35,2.8,8.03,69.01-39.24,116.28C247.38,361.83,245.77,362.47,244.13,362.47z"/>
	<path class="st0" d="M256.1,209.49c-9.24,0-18.47-3.52-25.51-10.55c-14.06-14.06-14.06-36.95,0-51.01
		c14.06-14.07,36.95-14.06,51.01,0s14.06,36.95,0,51.01C274.57,205.97,265.34,209.49,256.1,209.49z M256.1,149.97
		c-6.01,0-12.02,2.29-16.6,6.86c-9.15,9.15-9.15,24.04,0,33.19c9.15,9.15,24.04,9.15,33.19,0c9.15-9.15,9.15-24.04,0-33.19
		C268.12,152.26,262.11,149.97,256.1,149.97z"/>
	<path class="st1" d="M221.63,295.17c-6.01,0-11.98-2.32-16.49-6.83v0l-63.95-63.95c-7.92-7.92-9.09-20.36-2.78-29.58
		c11.49-16.8,29.03-36.92,53.61-61.5c47.37-47.37,109.09-72.23,165.08-66.5c2.97,0.3,5.32,2.65,5.63,5.63
		c5.73,56-19.14,117.71-66.5,165.08c-24.58,24.58-44.69,42.11-61.5,53.61C230.75,293.84,226.18,295.17,221.63,295.17z M340.97,78.6
		c-48.17,0-99.52,23.1-140.05,63.63c-24.02,24.02-41.07,43.55-52.12,59.7c-2.89,4.22-2.34,9.92,1.29,13.56l63.95,63.95v0
		c3.64,3.64,9.34,4.18,13.56,1.29c16.15-11.05,35.68-28.1,59.7-52.12c43.24-43.24,66.65-98.81,63.31-149.7
		C347.42,78.7,344.2,78.6,340.97,78.6z"/>
	<path class="st1" d="M180.68,297.74c-12.52,0-24.72-4.91-33.88-14.07c-12.67-12.67-17.21-31.16-11.87-48.25l4.64-14.82
		c1.04-3.32,4.58-5.17,7.89-4.13c3.32,1.04,5.17,4.57,4.13,7.89l-4.64,14.82c-3.94,12.61-0.59,26.24,8.75,35.58
		c9.34,9.34,22.98,12.69,35.58,8.75l14.82-4.63c3.32-1.04,6.85,0.81,7.89,4.13s-0.81,6.85-4.13,7.89l-14.82,4.63
		C190.32,297.02,185.48,297.74,180.68,297.74z"/>
	<path class="st1" d="M342.7,159.11c-0.11,0-0.22,0-0.33-0.01c-0.88-0.04-21.71-1.37-45.73-25.39
		c-23.92-23.92-26.11-45.4-26.19-46.3c-0.31-3.46,2.24-6.53,5.71-6.84c3.45-0.32,6.5,2.22,6.84,5.67
		c0.04,0.37,2.23,18.24,22.56,38.57c20.3,20.3,37.35,21.71,37.52,21.72c3.47,0.18,6.12,3.14,5.94,6.61
		C348.84,156.49,346.03,159.11,342.7,159.11z"/>
	<path class="st0" d="M72.79,363.98c-1.7,0-3.34-0.69-4.54-1.93c-1.34-1.39-1.97-3.32-1.7-5.23c1.6-11.59,8.04-50.63,23.81-66.41
		c6.64-6.64,15.46-10.29,24.85-10.29s18.21,3.66,24.85,10.29c13.7,13.7,13.7,35.99,0,49.69c0,0,0,0,0,0
		c-12.55,12.55-43.02,21.49-66.64,23.84C73.2,363.97,73,363.98,72.79,363.98z M115.21,292.72c-6.02,0-11.68,2.34-15.94,6.6
		c-7.65,7.65-14.84,27.2-18.97,51.03c19.66-3.1,42.11-10.42,50.84-19.16v0c8.79-8.79,8.79-23.09,0-31.88
		C126.89,295.07,121.23,292.72,115.21,292.72z M135.6,335.66L135.6,335.66L135.6,335.66z"/>
</g>
</svg>
