<?xml version="1.0" encoding="utf-8"?>
<!-- Generator: Adobe Illustrator 24.1.2, SVG Export Plug-In . SVG Version: 6.00 Build 0)  -->
<svg version="1.1" id="Warstwa_3" xmlns="http://www.w3.org/2000/svg" xmlns:xlink="http://www.w3.org/1999/xlink" x="0px" y="0px"
	 viewBox="0 0 430 430" style="enable-background:new 0 0 430 430;" xml:space="preserve">
<style type="text/css">
	.st0{fill:#121331;}
	.st1{fill:#08a88a;}
	.st2{fill:none;stroke:#121331;stroke-width:12;stroke-linecap:round;stroke-linejoin:round;stroke-miterlimit:10;}
	.st3{fill:none;stroke:#08a88a;stroke-width:12;stroke-linecap:round;stroke-linejoin:round;stroke-miterlimit:10;}
	.st4{fill:#08a88a;}
</style>
<g>
	<g>
		<path class="st0" d="M279.68,254.47h-82.16c-0.72,0-1.44-0.13-2.11-0.38l-38.65-14.52c-2.34-0.88-3.89-3.12-3.89-5.62v-91.04
			c0-3.31,2.69-6,6-6h20.28c17.55-8.41,27.19-22.61,27.19-40.12V55.88c0-3.31,2.69-6,6-6c21.51,0,39.01,17.49,39.01,38.99v36.92
			h36.7c17.41,0,31.75,13.6,32.65,30.96c0.02,0.42,0,0.85-0.07,1.26l-12.05,75.1c-0.06,0.35-0.14,0.69-0.26,1.03
			C304.07,246.3,292.56,254.47,279.68,254.47z M198.6,242.47h81.07c7.63,0,14.45-4.73,17.15-11.81l11.85-73.87
			c-0.86-10.7-9.81-18.99-20.63-18.99h-42.7c-3.31,0-6-2.69-6-6V88.88c0-12.82-8.99-23.59-21.01-26.32v34.23
			c0,22.54-12.89,41.34-35.37,51.58c-0.78,0.36-1.63,0.54-2.49,0.54h-15.61v80.88L198.6,242.47z"/>
		<path class="st0" d="M158.87,239.95h-39.45c-3.31,0-6-2.69-6-6v-91.04c0-3.31,2.69-6,6-6h39.45c3.31,0,6,2.69,6,6v91.04
			C164.87,237.27,162.18,239.95,158.87,239.95z M125.41,227.95h27.45v-79.04h-27.45V227.95z"/>
	</g>
	<path class="st1" d="M124.15,380.12c-0.92,0-1.85-0.21-2.71-0.65l-24.32-12.3l-24.32,12.3c-2.03,1.03-4.46,0.82-6.29-0.54
		c-1.82-1.36-2.73-3.63-2.33-5.87l4.59-25.76l-19.49-18.29c-1.68-1.58-2.31-3.99-1.61-6.19c0.7-2.2,2.6-3.81,4.89-4.13l27.13-3.79
		l12.09-23.58c1.03-2,3.09-3.26,5.34-3.26s4.31,1.26,5.34,3.26l12.09,23.58l27.13,3.79c2.29,0.32,4.19,1.93,4.89,4.13
		c0.7,2.2,0.07,4.61-1.61,6.19l-19.49,18.29l4.59,25.76c0.4,2.24-0.5,4.51-2.33,5.87C126.67,379.72,125.41,380.12,124.15,380.12z
		 M97.12,354.44c0.93,0,1.86,0.22,2.71,0.65l16.3,8.25l-3.05-17.13c-0.36-2,0.32-4.04,1.8-5.43l12.72-11.93l-17.8-2.49
		c-1.93-0.27-3.62-1.47-4.51-3.21l-8.17-15.94l-8.17,15.94c-0.89,1.74-2.57,2.93-4.51,3.21l-17.8,2.49l12.72,11.93
		c1.48,1.39,2.16,3.43,1.8,5.43l-3.05,17.13l16.3-8.25C95.26,354.66,96.19,354.44,97.12,354.44z"/>
	<path class="st1" d="M241.83,380.12c-0.96,0-1.91-0.23-2.79-0.69l-23.22-12.21l-23.22,12.21c-2.02,1.06-4.47,0.89-6.32-0.46
		c-1.85-1.34-2.77-3.62-2.39-5.87l4.44-25.86l-18.79-18.31c-1.64-1.59-2.22-3.98-1.52-6.15c0.71-2.17,2.58-3.76,4.84-4.08
		l25.96-3.77l11.61-23.53c1.01-2.05,3.1-3.34,5.38-3.34l0,0c2.28,0,4.37,1.3,5.38,3.34l11.61,23.53l25.96,3.77
		c2.26,0.33,4.14,1.91,4.84,4.08c0.71,2.17,0.12,4.56-1.52,6.15l-18.79,18.31l4.43,25.86c0.39,2.25-0.54,4.53-2.39,5.87
		C244.31,379.73,243.08,380.12,241.83,380.12z M215.82,354.44c0.96,0,1.92,0.23,2.79,0.69l15.25,8.02l-2.91-16.98
		c-0.33-1.95,0.31-3.93,1.73-5.31l12.34-12.03l-17.05-2.48c-1.95-0.28-3.64-1.51-4.52-3.28l-7.63-15.45l-7.63,15.45
		c-0.87,1.77-2.56,3-4.52,3.28l-17.05,2.48l12.34,12.03c1.41,1.38,2.06,3.36,1.73,5.31l-2.91,16.98l15.25-8.02
		C213.9,354.67,214.86,354.44,215.82,354.44z"/>
	<path class="st1" d="M308.5,380.12c-1.24,0-2.48-0.39-3.53-1.15c-1.85-1.34-2.77-3.62-2.39-5.87l4.43-25.86l-18.79-18.31
		c-1.64-1.59-2.22-3.98-1.52-6.15c0.71-2.17,2.58-3.76,4.84-4.08l25.96-3.77l11.61-23.53c1.01-2.05,3.1-3.34,5.38-3.34
		s4.37,1.3,5.38,3.34l11.61,23.53l25.96,3.77c2.26,0.33,4.14,1.91,4.84,4.08c0.71,2.17,0.12,4.56-1.52,6.15l-18.79,18.31l4.44,25.86
		c0.39,2.25-0.54,4.53-2.39,5.87c-1.85,1.34-4.3,1.52-6.32,0.46l-23.22-12.21l-23.22,12.21
		C310.42,379.89,309.46,380.12,308.5,380.12z M305.32,328.83l12.34,12.03c1.41,1.38,2.06,3.36,1.73,5.31l-2.91,16.98l15.25-8.02
		c1.75-0.92,3.84-0.92,5.58,0l15.25,8.02l-2.91-16.98c-0.33-1.95,0.31-3.93,1.73-5.31l12.34-12.03l-17.05-2.48
		c-1.95-0.28-3.64-1.51-4.52-3.28l-7.63-15.45l-7.63,15.45c-0.87,1.77-2.56,3-4.52,3.28L305.32,328.83z"/>
</g>
</svg>
